<svg width="28" height="16" viewBox="0 0 28 16" fill="none" xmlns="http://www.w3.org/2000/svg">
<path d="M0 15.7852C0.1875 13.556 0.869792 11.5039 2.04688 9.62891C3.22396 7.75391 4.79167 6.26432 6.75 5.16016L4.4375 1.16016C4.3125 0.972656 4.28125 0.77474 4.34375 0.566406C4.40625 0.358073 4.54167 0.201823 4.75 0.0976562C4.91667 -0.00651041 5.10417 -0.0273438 5.3125 0.0351562C5.52083 0.0976562 5.6875 0.222656 5.8125 0.410156L8.125 4.41016C9.91667 3.66016 11.7917 3.28516 13.75 3.28516C15.7083 3.28516 17.5833 3.66016 19.375 4.41016L21.6875 0.410156C21.8125 0.222656 21.9792 0.0976562 22.1875 0.0351562C22.3958 -0.0273438 22.5833 -0.00651041 22.75 0.0976562C22.9583 0.201823 23.0938 0.358073 23.1562 0.566406C23.2188 0.77474 23.1875 0.972656 23.0625 1.16016L20.75 5.16016C22.7083 6.26432 24.276 7.75391 25.4531 9.62891C26.6302 11.5039 27.3125 13.556 27.5 15.7852H0V15.7852M7.5 12.3477C7.9375 12.3477 8.30729 12.1966 8.60938 11.8945C8.91146 11.5924 9.0625 11.2227 9.0625 10.7852C9.0625 10.3477 8.91146 9.97786 8.60938 9.67578C8.30729 9.3737 7.9375 9.22266 7.5 9.22266C7.0625 9.22266 6.69271 9.3737 6.39062 9.67578C6.08854 9.97786 5.9375 10.3477 5.9375 10.7852C5.9375 11.2227 6.08854 11.5924 6.39062 11.8945C6.69271 12.1966 7.0625 12.3477 7.5 12.3477V12.3477M20 12.3477C20.4375 12.3477 20.8073 12.1966 21.1094 11.8945C21.4115 11.5924 21.5625 11.2227 21.5625 10.7852C21.5625 10.3477 21.4115 9.97786 21.1094 9.67578C20.8073 9.3737 20.4375 9.22266 20 9.22266C19.5625 9.22266 19.1927 9.3737 18.8906 9.67578C18.5885 9.97786 18.4375 10.3477 18.4375 10.7852C18.4375 11.2227 18.5885 11.5924 18.8906 11.8945C19.1927 12.1966 19.5625 12.3477 20 12.3477V12.3477" fill="#0F172A"/>
</svg>
