<svg width="20" height="13" viewBox="0 0 20 13" fill="none" xmlns="http://www.w3.org/2000/svg">
<path d="M0 2.5V0H2.5V2.5H0V2.5M0 12.5V5H2.5V12.5H0V12.5M8.75 12.5H6.25C5.5625 12.5 4.97396 12.2552 4.48438 11.7656C3.99479 11.276 3.75 10.6875 3.75 10V2.5C3.75 1.8125 3.99479 1.22396 4.48438 0.734375C4.97396 0.244792 5.5625 0 6.25 0H8.75C9.4375 0 10.026 0.244792 10.5156 0.734375C11.0052 1.22396 11.25 1.8125 11.25 2.5V10C11.25 10.6875 11.0052 11.276 10.5156 11.7656C10.026 12.2552 9.4375 12.5 8.75 12.5V12.5M6.25 10H8.75V10V10V2.5V2.5V2.5H6.25V2.5V2.5V10V10V10V10M12.5 12.5V10H17.5V10V10V7.5V7.5V7.5H15C14.3125 7.5 13.724 7.25521 13.2344 6.76562C12.7448 6.27604 12.5 5.6875 12.5 5V2.5C12.5 1.8125 12.7448 1.22396 13.2344 0.734375C13.724 0.244792 14.3125 0 15 0H20V2.5H15V2.5V2.5V5V5V5H17.5C18.1875 5 18.776 5.24479 19.2656 5.73438C19.7552 6.22396 20 6.8125 20 7.5V10C20 10.6875 19.7552 11.276 19.2656 11.7656C18.776 12.2552 18.1875 12.5 17.5 12.5H12.5V12.5" fill="#0F172A"/>
</svg>
